REM DIRINDEX 1\2,1\4,1\5,1\6,1\7,1\3\8,1\3\9,1\3\10
REM DIRNAME folder01,folder02,folder03,folder04,folder05,folder06,folder07,folder08,folder09,folder10
TITLE ""
FILE "DB4500_5th_2A_30.mp3" MP3
  TRACK 01 AUDIO
    TITLE "8:cjc113_1132"
    INDEX 01 00:00:00
  TRACK 02 AUDIO
    TITLE "0:"
    INDEX 01 00:01:30
  TRACK 03 AUDIO
    TITLE "9:cjc113_1133"
    INDEX 01 00:01:54
  TRACK 04 AUDIO
    TITLE "0:"
    INDEX 01 00:02:63
  TRACK 05 AUDIO
    TITLE "10:cjc113_1134"
    INDEX 01 00:03:12
  TRACK 06 AUDIO
    TITLE "0:"
    INDEX 01 00:06:51
  TRACK 07 AUDIO
    TITLE "8:cjc113_1135"
    INDEX 01 00:07:23
  TRACK 08 AUDIO
    TITLE "0:"
    INDEX 01 00:08:38
  TRACK 09 AUDIO
    TITLE "9:cjc113_1136"
    INDEX 01 00:08:58
  TRACK 10 AUDIO
    TITLE "0:"
    INDEX 01 00:10:39
  TRACK 11 AUDIO
    TITLE "10:cjc113_1137"
    INDEX 01 00:10:61
  TRACK 12 AUDIO
    TITLE "0:"
    INDEX 01 00:13:45
  TRACK 13 AUDIO
    TITLE "8:cjc113_1138"
    INDEX 01 00:14:19
  TRACK 14 AUDIO
    TITLE "0:"
    INDEX 01 00:15:36
  TRACK 15 AUDIO
    TITLE "9:cjc113_1139"
    INDEX 01 00:15:58
  TRACK 16 AUDIO
    TITLE "0:"
    INDEX 01 00:17:12
  TRACK 17 AUDIO
    TITLE "10:cjc113_1140"
    INDEX 01 00:17:37
  TRACK 18 AUDIO
    TITLE "0:"
    INDEX 01 00:21:06
  TRACK 19 AUDIO
    TITLE "8:cjc113_1141"
    INDEX 01 00:21:53
  TRACK 20 AUDIO
    TITLE "0:"
    INDEX 01 00:22:62
  TRACK 21 AUDIO
    TITLE "9:cjc113_1142"
    INDEX 01 00:23:10
  TRACK 22 AUDIO
    TITLE "0:"
    INDEX 01 00:24:51
  TRACK 23 AUDIO
    TITLE "10:cjc113_1143"
    INDEX 01 00:24:72
  TRACK 24 AUDIO
    TITLE "0:"
    INDEX 01 00:28:51
  TRACK 25 AUDIO
    TITLE "8:cjc113_1144"
    INDEX 01 00:29:23
  TRACK 26 AUDIO
    TITLE "0:"
    INDEX 01 00:30:36
  TRACK 27 AUDIO
    TITLE "9:cjc113_1145"
    INDEX 01 00:30:57
  TRACK 28 AUDIO
    TITLE "0:"
    INDEX 01 00:32:01
  TRACK 29 AUDIO
    TITLE "10:cjc113_1146"
    INDEX 01 00:32:23
  TRACK 30 AUDIO
    TITLE "0:"
    INDEX 01 00:35:45
  TRACK 31 AUDIO
    TITLE "8:cjc113_1147"
    INDEX 01 00:36:17
  TRACK 32 AUDIO
    TITLE "0:"
    INDEX 01 00:37:48
  TRACK 33 AUDIO
    TITLE "9:cjc113_1148"
    INDEX 01 00:37:69
  TRACK 34 AUDIO
    TITLE "0:"
    INDEX 01 00:39:39
  TRACK 35 AUDIO
    TITLE "10:cjc113_1149"
    INDEX 01 00:39:58
  TRACK 36 AUDIO
    TITLE "0:"
    INDEX 01 00:42:21
  TRACK 37 AUDIO
    TITLE "8:cjc113_1150"
    INDEX 01 00:42:61
  TRACK 38 AUDIO
    TITLE "0:"
    INDEX 01 00:43:68
  TRACK 39 AUDIO
    TITLE "9:cjc113_1151"
    INDEX 01 00:44:11
  TRACK 40 AUDIO
    TITLE "0:"
    INDEX 01 00:45:30
  TRACK 41 AUDIO
    TITLE "10:cjc113_1152"
    INDEX 01 00:45:51
  TRACK 42 AUDIO
    TITLE "0:"
    INDEX 01 00:50:09
  TRACK 43 AUDIO
    TITLE "8:cjc113_1153"
    INDEX 01 00:50:56
  TRACK 44 AUDIO
    TITLE "0:"
    INDEX 01 00:52:00
  TRACK 45 AUDIO
    TITLE "9:cjc113_1154"
    INDEX 01 00:52:22
  TRACK 46 AUDIO
    TITLE "0:"
    INDEX 01 00:53:64
  TRACK 47 AUDIO
    TITLE "10:cjc113_1155"
    INDEX 01 00:54:07
  TRACK 48 AUDIO
    TITLE "0:"
    INDEX 01 00:57:60
  TRACK 49 AUDIO
    TITLE "10:cjc113_1156"
    INDEX 01 00:58:26
  TRACK 50 AUDIO
    TITLE "0:"
    INDEX 01 01:02:14
  TRACK 51 AUDIO
    TITLE "8:cjc113_1157"
    INDEX 01 01:02:55
  TRACK 52 AUDIO
    TITLE "0:"
    INDEX 01 01:04:09
  TRACK 53 AUDIO
    TITLE "9:cjc113_1158"
    INDEX 01 01:04:29
  TRACK 54 AUDIO
    TITLE "0:"
    INDEX 01 01:05:73
  TRACK 55 AUDIO
    TITLE "10:cjc113_1159"
    INDEX 01 01:06:16
  TRACK 56 AUDIO
    TITLE "0:"
    INDEX 01 01:09:48
  TRACK 57 AUDIO
    TITLE "8:cjc113_1160"
    INDEX 01 01:10:12
  TRACK 58 AUDIO
    TITLE "0:"
    INDEX 01 01:11:27
  TRACK 59 AUDIO
    TITLE "9:cjc113_1161"
    INDEX 01 01:11:47
  TRACK 60 AUDIO
    TITLE "0:"
    INDEX 01 01:12:60
  TRACK 61 AUDIO
    TITLE "10:cjc113_1162"
    INDEX 01 01:13:00
  TRACK 62 AUDIO
    TITLE "0:"
    INDEX 01 01:16:38
  TRACK 63 AUDIO
    TITLE "10:cjc113_1163"
    INDEX 01 01:17:10
  TRACK 64 AUDIO
    TITLE "0:"
    INDEX 01 01:19:72
